<svg width="133" height="40" viewBox="0 0 133 40" fill="none" xmlns="http://www.w3.org/2000/svg">
<path d="M119.704 16.0714L120.466 16.1149H120.509C120.756 16.1149 120.879 15.9553 120.879 15.6362V5.10562C120.879 4.97508 120.835 4.86629 120.748 4.77926C120.676 4.67773 120.56 4.63421 120.4 4.64872L119.704 4.69223V3.88721H125.339C126.906 3.88721 128.059 4.15555 128.799 4.69223C129.553 5.21441 129.93 6.03394 129.93 7.15082C129.93 8.03562 129.647 8.77537 129.082 9.37007C128.53 9.96477 127.762 10.3637 126.775 10.5667C127.297 10.5667 127.827 10.7118 128.364 11.0019C128.9 11.292 129.343 11.7199 129.691 12.2856C130.053 12.8368 130.235 13.4822 130.235 14.222C130.235 14.6281 130.293 15.0633 130.409 15.5274C130.539 15.9771 130.692 16.2237 130.866 16.2672C130.953 16.2962 131.047 16.3107 131.148 16.3107C131.279 16.3107 131.395 16.2817 131.497 16.2237V16.8764H127.646C127.471 16.5138 127.37 16.0351 127.341 15.4404C127.312 15.0633 127.297 14.7877 127.297 14.6136V13.8956C127.297 12.9093 127.022 12.1768 126.471 11.6981C125.919 11.2195 125.252 10.9801 124.469 10.9801H123.882V15.6362C123.882 15.9553 124.027 16.1149 124.317 16.1149L125.383 16.0714V16.8764H119.704V16.0714ZM125.252 10.2186C125.774 10.2186 126.188 9.97203 126.492 9.47886C126.812 8.97119 126.971 8.28945 126.971 7.43366C126.971 6.46183 126.797 5.75834 126.449 5.3232C126.101 4.87354 125.564 4.64872 124.839 4.64872H124.143C123.969 4.64872 123.882 4.72124 123.882 4.86629V10.2186H125.252Z" fill="white"></path>
<path d="M107.609 16.0494L108.393 16.1147C108.654 16.1147 108.784 15.9551 108.784 15.636V5.10541C108.784 4.97486 108.741 4.86608 108.654 4.77905C108.581 4.67751 108.48 4.634 108.349 4.6485L107.609 4.69202V3.88699H117.204C117.407 3.88699 117.531 3.87974 117.574 3.86523V7.23763H116.813C116.813 6.32382 116.566 5.66385 116.073 5.25771C115.58 4.85157 114.797 4.6485 113.723 4.6485H112.048C111.874 4.6485 111.787 4.75004 111.787 4.9531V9.805H113.353C113.846 9.805 114.245 9.60919 114.55 9.21755C114.855 8.82592 115.007 8.28924 115.007 7.60751H115.747V12.7205H115.007C115.007 12.1113 114.84 11.6036 114.506 11.1975C114.187 10.7768 113.803 10.5665 113.353 10.5665H111.787V15.81C111.787 15.9986 111.874 16.0929 112.048 16.0929H114.441C115.428 16.0929 116.175 15.8246 116.682 15.2879C117.204 14.7512 117.465 13.9824 117.465 12.9816H118.227V16.9414C117.908 16.8979 117.212 16.8762 116.138 16.8762H107.609V16.0494Z" fill="white"></path>
<path d="M94.1533 16.0714L95.0019 16.1149H95.0236C95.1252 16.1149 95.1977 16.0714 95.2412 15.9843C95.2992 15.8828 95.3282 15.7667 95.3282 15.6362V5.10562C95.3282 4.97508 95.292 4.86629 95.2194 4.77926C95.1469 4.69223 95.0454 4.64872 94.9148 4.64872L94.1533 4.69223V3.88721H99.4621C101.884 3.88721 103.661 4.38763 104.793 5.38847C105.939 6.38931 106.512 8.05012 106.512 10.3709C106.512 12.5176 105.953 14.1422 104.836 15.2446C103.734 16.3324 102.03 16.8764 99.7232 16.8764H94.1533V16.0714ZM98.3307 15.8103C98.3307 15.9988 98.4178 16.0931 98.5918 16.0931H99.0922C100.137 16.0931 100.949 15.9336 101.529 15.6144C102.124 15.2953 102.552 14.7296 102.813 13.9174C103.088 13.1051 103.226 11.9302 103.226 10.3927C103.226 8.86965 103.088 7.69475 102.813 6.86797C102.552 6.04119 102.124 5.46824 101.529 5.14914C100.949 4.81552 100.137 4.64872 99.0922 4.64872H98.5918C98.4178 4.64872 98.3307 4.743 98.3307 4.93156V15.8103Z" fill="white"></path>
<path d="M94.0689 16.0712V16.8762H87.5417V16.0712L88.5425 16.1147C88.9777 16.1582 89.1953 15.9841 89.1953 15.5925C89.1953 15.3459 89.1227 15.0631 88.9777 14.744L88.1727 12.8293H83.386L82.6463 14.6134C82.4432 15.0631 82.3417 15.4257 82.3417 15.7013C82.3417 16.0059 82.5012 16.1509 82.8203 16.1364L83.7994 16.0712V16.8762H79.8613V16.0712L80.4923 16.1147H80.5793C80.8694 16.1147 81.1088 15.9769 81.2973 15.7013C81.5149 15.3822 81.7325 14.9615 81.95 14.4393L86.4321 3.66943H87.4982L92.0237 14.4829C92.2268 15.005 92.4371 15.4184 92.6547 15.723C92.8577 15.9841 93.1116 16.1147 93.4162 16.1147H93.525L94.0689 16.0712ZM83.6906 12.0678H87.8681L85.7576 7.06359L83.6906 12.0678Z" fill="white"></path>
<path d="M68.498 16.0714L69.2596 16.1149H69.3031C69.5497 16.1149 69.6729 15.9553 69.6729 15.6362V5.10562C69.6729 4.97508 69.6294 4.86629 69.5424 4.77926C69.4699 4.67773 69.3538 4.63421 69.1943 4.64872L68.498 4.69223V3.88721H74.1332C75.6997 3.88721 76.8529 4.15555 77.5926 4.69223C78.3469 5.21441 78.724 6.03394 78.724 7.15082C78.724 8.03562 78.4412 8.77537 77.8755 9.37007C77.3243 9.96477 76.5555 10.3637 75.5692 10.5667C76.0914 10.5667 76.6208 10.7118 77.1575 11.0019C77.6942 11.292 78.1366 11.7199 78.4847 12.2856C78.8473 12.8368 79.0286 13.4822 79.0286 14.222C79.0286 14.6281 79.0866 15.0633 79.2027 15.5274C79.3332 15.9771 79.4855 16.2237 79.6596 16.2672C79.7466 16.2962 79.8409 16.3107 79.9424 16.3107C80.073 16.3107 80.189 16.2817 80.2906 16.2237V16.8764H76.4395C76.2654 16.5138 76.1639 16.0351 76.1349 15.4404C76.1059 15.0633 76.0914 14.7877 76.0914 14.6136V13.8956C76.0914 12.9093 75.8158 12.1768 75.2646 11.6981C74.7134 11.2195 74.0462 10.9801 73.2629 10.9801H72.6755V15.6362C72.6755 15.9553 72.8205 16.1149 73.1106 16.1149L74.1767 16.0714V16.8764H68.498V16.0714ZM74.0462 10.2186C74.5684 10.2186 74.9818 9.97203 75.2864 9.47886C75.6055 8.97119 75.765 8.28945 75.765 7.43366C75.765 6.46183 75.591 5.75834 75.2428 5.3232C74.8947 4.87354 74.358 4.64872 73.6328 4.64872H72.9366C72.7625 4.64872 72.6755 4.72124 72.6755 4.86629V10.2186H74.0462Z" fill="white"></path>
<path d="M56.4746 3.82275C56.7357 3.85176 57.0838 3.86627 57.519 3.86627H66.6353C67.172 3.86627 67.5129 3.85176 67.6579 3.82275V7.21691H66.9399C66.9399 6.33211 66.7296 5.67939 66.309 5.25874C65.9028 4.8381 65.2211 4.62778 64.2638 4.62778H63.8286C63.6836 4.62778 63.5965 4.70755 63.5675 4.86711V15.637C63.5675 15.9561 63.7126 16.1157 64.0027 16.1157L65.1558 16.0722V16.8772H58.9767V16.0722L60.1516 16.1157C60.2822 16.1157 60.3837 16.0649 60.4562 15.9634C60.5287 15.8473 60.565 15.7168 60.565 15.5718V4.88887C60.565 4.71481 60.478 4.62778 60.3039 4.62778H59.9123C58.955 4.62778 58.266 4.8381 57.8453 5.25874C57.4247 5.67939 57.2144 6.33211 57.2144 7.21691H56.4746V3.82275Z" fill="white"></path>
<path d="M101.848 22.2319C102.109 22.2609 102.457 22.2754 102.892 22.2754H112.008C112.545 22.2754 112.886 22.2609 113.031 22.2319V25.6261H112.313C112.313 24.7413 112.103 24.0886 111.682 23.6679C111.276 23.2473 110.594 23.037 109.637 23.037H109.202C109.057 23.037 108.97 23.1167 108.941 23.2763V34.0462C108.941 34.3653 109.086 34.5249 109.376 34.5249L110.529 34.4813V35.2864H104.35V34.4813L105.525 34.5249C105.655 34.5249 105.757 34.4741 105.829 34.3726C105.902 34.2565 105.938 34.126 105.938 33.9809V23.298C105.938 23.124 105.851 23.037 105.677 23.037H105.285C104.328 23.037 103.639 23.2473 103.218 23.6679C102.798 24.0886 102.587 24.7413 102.587 25.6261H101.848V22.2319Z" fill="white"></path>
<path d="M93.3486 34.4597L94.1972 34.525C94.4147 34.525 94.5235 34.3655 94.5235 34.0464V23.5158C94.5235 23.3852 94.48 23.2764 94.393 23.1894C94.3205 23.0879 94.2262 23.0444 94.1101 23.0589L93.3486 23.1024V22.2974H99.0273V23.1024L97.9612 23.0589H97.9177C97.8016 23.0589 97.7074 23.1024 97.6348 23.1894C97.5623 23.2764 97.5261 23.3852 97.5261 23.5158V34.2204C97.5261 34.409 97.6131 34.5033 97.7871 34.5033H99.593C100.536 34.5033 101.254 34.2567 101.747 33.7635C102.24 33.2558 102.487 32.5233 102.487 31.566H103.205V35.3518C102.944 35.3083 102.044 35.2865 100.507 35.2865H93.3486V34.4597Z" fill="white"></path>
<path d="M79.7568 22.2974H85.5008V23.1024L84.4347 23.0589H84.3912C84.2751 23.0589 84.1808 23.1024 84.1083 23.1894C84.0358 23.2764 83.9995 23.378 83.9995 23.494V30.9568C83.9995 32.1897 84.2824 33.1108 84.8481 33.72C85.4283 34.3147 86.2623 34.6121 87.3502 34.6121C88.467 34.6121 89.2793 34.2784 89.787 33.6112C90.3092 32.944 90.5703 32.0302 90.5703 30.8698V23.5158C90.5703 23.3707 90.534 23.2547 90.4615 23.1677C90.389 23.0806 90.2947 23.0444 90.1786 23.0589L89.1125 23.1024V22.2974H92.7895V23.1024L91.941 23.0589H91.8975C91.7814 23.0589 91.6871 23.1024 91.6146 23.1894C91.5421 23.2764 91.5058 23.378 91.5058 23.494V30.8698C91.5058 32.3348 91.1142 33.4734 90.3309 34.2857C89.5477 35.098 88.3655 35.5041 86.7845 35.5041C82.9262 35.5041 80.997 33.9883 80.997 30.9568V23.5158C80.997 23.3852 80.9535 23.2764 80.8665 23.1894C80.7939 23.0879 80.6997 23.0444 80.5836 23.0589L79.7568 23.1024V22.2974Z" fill="white"></path>
<path d="M80.2613 34.4813V35.2863H73.7341V34.4813L74.7349 34.5248C75.1701 34.5683 75.3876 34.3943 75.3876 34.0026C75.3876 33.7561 75.3151 33.4732 75.1701 33.1541L74.365 31.2395H69.5784L68.8387 33.0236C68.6356 33.4732 68.5341 33.8358 68.5341 34.1114C68.5341 34.416 68.6936 34.5611 69.0127 34.5466L69.9918 34.4813V35.2863H66.0537V34.4813L66.6847 34.5248H66.7717C67.0618 34.5248 67.3011 34.387 67.4897 34.1114C67.7073 33.7923 67.9248 33.3717 68.1424 32.8495L72.6244 22.0796H73.6906L78.2161 32.893C78.4192 33.4152 78.6295 33.8286 78.8471 34.1332C79.0501 34.3943 79.304 34.5248 79.6086 34.5248H79.7174L80.2613 34.4813ZM69.883 30.4779H74.0604L71.95 25.4737L69.883 30.4779Z" fill="white"></path>
<path d="M69.7899 22.2974V23.1024L69.0066 23.0589C68.8906 23.0444 68.8036 23.0734 68.7455 23.1459C68.702 23.2184 68.6368 23.3562 68.5497 23.5593L63.4367 35.3736H62.3054L57.2141 23.5593C57.0546 23.2257 56.8878 23.0589 56.7137 23.0589L56.1045 23.1024V22.2974H61.6744V23.1024L60.5865 23.0589C60.514 23.0589 60.456 23.0951 60.4125 23.1677C60.3689 23.2257 60.3472 23.2982 60.3472 23.3852C60.3472 23.4287 60.3617 23.494 60.3907 23.581L63.9589 31.8271L67.4401 23.8204C67.5416 23.6028 67.5924 23.4287 67.5924 23.2982C67.5924 23.1386 67.5054 23.0589 67.3313 23.0589L66.287 23.1024V22.2974H69.7899Z" fill="white"></path>
<path d="M132.095 29.7714V30.2668H128.587V29.7714L129.243 29.7981C129.421 29.7981 129.511 29.7 129.511 29.5036V23.5588L126.431 30.4007H126.003L122.562 23.2107V29.5036C122.562 29.7 122.646 29.7981 122.816 29.7981L123.472 29.7714V30.2668H121.223V29.7714L121.745 29.7981C121.923 29.7981 122.013 29.7 122.013 29.5036V22.8224C122.013 22.7599 121.968 22.7331 121.879 22.7421L121.316 22.7688V22.2734H124.075L126.886 28.1111L129.524 22.2734H132.028V22.7688L131.613 22.7421H131.586C131.514 22.7421 131.456 22.7688 131.412 22.8224C131.367 22.8759 131.345 22.9384 131.345 23.0098V29.5036C131.345 29.7178 131.434 29.816 131.613 29.7981L132.095 29.7714Z" fill="#6F26FF"></path>
<path d="M115.248 29.758L115.77 29.7982C115.904 29.7982 115.971 29.7 115.971 29.5036V23.0232C115.971 22.9429 115.944 22.8759 115.891 22.8224C115.846 22.7599 115.788 22.7331 115.717 22.7421L115.248 22.7688V22.2734H118.743V22.7688L118.087 22.7421H118.06C117.988 22.7421 117.93 22.7688 117.886 22.8224C117.841 22.8759 117.819 22.9429 117.819 23.0232V29.6107C117.819 29.7267 117.872 29.7848 117.979 29.7848H119.091C119.671 29.7848 120.113 29.633 120.416 29.3295C120.72 29.0171 120.871 28.5663 120.871 27.9772H121.313V30.3069C121.153 30.2802 120.599 30.2668 119.653 30.2668H115.248V29.758Z" fill="#6F26FF"></path>
<path d="M25.1784 0.01351C25.2176 0.0092898 25.2567 -0.00337083 25.2958 0.000849382C25.4567 0.0177302 44.608 7.20897 44.608 7.20897L44.5775 14.3622L50.4568 14.3453C50.0046 14.9699 45.6386 19.6797 45.6386 19.6797C45.3646 19.9667 44.9733 20.0004 44.5819 20.0342C44.5819 20.0342 44.6036 21.7476 44.4514 22.3047C44.2992 22.8575 44.0122 23.3344 43.5774 23.7522C43.286 24.0307 25.2306 40 25.2306 40C24.8044 39.7594 7.43176 24.2966 7.13606 24.0265C6.549 23.499 6.14023 22.7731 5.97498 22.0388C5.86627 21.5577 5.89236 20.0089 5.89236 20.0089C5.89236 20.0089 5.37053 19.9962 5.3053 19.9582C5.16179 19.8865 0 14.3833 0 14.3833C0.113064 14.3496 0.295705 14.3707 0.421815 14.3707L5.88801 14.3833V7.19209C6.12718 6.97686 25.1784 0.01351 25.1784 0.01351Z" fill="#002334"></path>
<path d="M25.2868 1.79053L42.7378 8.27277V14.3541C42.7378 14.3541 40.5548 14.3879 40.3982 14.3288V9.70764L25.2607 4.0821C25.3303 3.86265 25.2912 3.56302 25.2912 3.3309V1.79053H25.2868Z" fill="white"></path>
<path d="M25.2646 4.08576C24.808 4.3221 9.97931 9.67332 9.97931 9.67332L9.99235 14.3746L7.69629 14.3662V8.25955C7.69629 8.25955 25.0777 1.76887 25.1864 1.76465C25.2168 1.76465 25.2516 1.78153 25.282 1.78997V3.33457C25.2864 3.56668 25.3255 3.86209 25.2603 4.08576H25.2646Z" fill="white"></path>
<path d="M25.248 35.0498L25.3046 35.0245C25.4742 34.9528 40.1464 21.5916 40.4334 21.3341L40.4203 20.0259H42.7425C42.7425 20.0259 42.786 21.4143 42.7381 21.7562C42.6903 22.0811 42.499 22.4314 42.2467 22.6635C41.8771 23.0053 25.5698 37.641 25.5698 37.641C25.5177 37.6875 25.3655 37.8309 25.2698 37.8689C25.2524 37.2401 25.2698 35.1891 25.2524 35.0456L25.248 35.0498Z" fill="white"></path>
<path d="M25.2472 30.6984C25.2472 30.6984 11.8101 18.54 11.4622 18.4387C11.2795 18.3838 6.29168 18.4345 6.19166 18.4134C6.05685 18.3796 3.9043 16.0205 3.9043 16.0205H13.4277L25.2733 26.5837C25.2733 26.5837 25.2298 30.6984 25.2429 30.6984H25.2472Z" fill="white"></path>
<path d="M25.279 26.5803L36.9898 16.0425L43.1213 16.0551H45.3391C45.7348 16.0594 46.1697 16.0298 46.5611 16.0762L44.5172 18.3763C44.5172 18.3763 39.225 18.3172 38.9554 18.3509L25.6921 30.3152C25.5878 30.425 25.4008 30.6697 25.2529 30.6908L25.2834 26.5761L25.279 26.5803Z" fill="#CEFF00"></path>
<path d="M25.2654 37.8728C25.0479 37.839 8.91461 23.3426 8.42757 22.8826C8.09273 22.5661 7.84051 22.1652 7.74919 21.7347C7.67091 21.3633 7.72309 19.958 7.72309 19.958H10.0061L9.99306 21.2621L25.2654 35.0453V37.877V37.8728Z" fill="white"></path>
</svg>