<svg width="55" height="44" viewBox="0 0 55 44" fill="none" xmlns="http://www.w3.org/2000/svg">
<path d="M27.4482 0.0147279C27.4909 0.0101273 27.5336 -0.0036747 27.5762 0.000925953C27.7516 0.0193286 48.6293 7.85885 48.6293 7.85885L48.5961 15.657L55.0055 15.6386C54.5125 16.3195 49.7529 21.4538 49.7529 21.4538C49.4542 21.7666 49.0275 21.8034 48.6009 21.8402C48.6009 21.8402 48.6246 23.7081 48.4587 24.3154C48.2928 24.9181 47.9799 25.438 47.5058 25.8934C47.1882 26.1971 27.5051 43.606 27.5051 43.606C27.0405 43.3437 8.10173 26.4869 7.77937 26.1925C7.13938 25.6174 6.69376 24.8261 6.51362 24.0256C6.3951 23.5011 6.42355 21.8126 6.42355 21.8126C6.42355 21.8126 5.85467 21.7988 5.78356 21.7574C5.62712 21.6792 0 15.68 0 15.68C0.123256 15.6432 0.322363 15.6662 0.459841 15.6662L6.41881 15.68V7.84045C6.67954 7.60581 27.4482 0.0147279 27.4482 0.0147279Z" fill="#002334"></path>
<path d="M27.5668 1.95166L46.5909 9.01827V15.6478C46.5909 15.6478 44.2111 15.6846 44.0404 15.6202V10.5825L27.5383 4.44982C27.6142 4.21058 27.5715 3.88394 27.5715 3.6309V1.95166H27.5668Z" fill="white"></path>
<path d="M27.543 4.45419C27.0452 4.71183 10.8797 10.5455 10.8797 10.5455L10.8939 15.6706L8.39087 15.6614V9.00424C8.39087 9.00424 27.3391 1.92843 27.4577 1.92383C27.4908 1.92383 27.5288 1.94223 27.562 1.95143V3.63527C27.5667 3.88831 27.6094 4.21035 27.5382 4.45419H27.543Z" fill="white"></path>
<path d="M27.524 38.2094L27.5857 38.1818C27.7706 38.1036 43.7654 23.5379 44.0783 23.2573L44.0641 21.8311H46.5956C46.5956 21.8311 46.643 23.3447 46.5908 23.7173C46.5387 24.0716 46.3301 24.4534 46.0551 24.7065C45.6522 25.0791 27.8749 41.0342 27.8749 41.0342C27.818 41.0848 27.652 41.2412 27.5478 41.2826C27.5288 40.5971 27.5478 38.3612 27.5288 38.2048L27.524 38.2094Z" fill="white"></path>
<path d="M27.5241 33.4664C27.5241 33.4664 12.8755 20.2119 12.4963 20.1015C12.2972 20.0417 6.85968 20.0969 6.75065 20.0739C6.60369 20.0371 4.25708 17.4653 4.25708 17.4653H14.639L27.5525 28.9808C27.5525 28.9808 27.5051 33.4664 27.5193 33.4664H27.5241Z" fill="white"></path>
<path d="M27.5573 28.9761L40.3238 17.4883L47.008 17.5021H49.4258C49.8572 17.5067 50.3312 17.4745 50.7579 17.5251L48.5298 20.0324C48.5298 20.0324 42.7604 19.968 42.4665 20.0048L28.0076 33.0477C27.8938 33.1673 27.69 33.4342 27.5288 33.4572L27.562 28.9715L27.5573 28.9761Z" fill="#CEFF00"></path>
<path d="M27.543 41.2876C27.306 41.2508 9.71826 25.4475 9.18731 24.9461C8.82229 24.601 8.54733 24.164 8.44778 23.6947C8.36244 23.2898 8.41933 21.7578 8.41933 21.7578H10.9082L10.8939 23.1794L27.543 38.2052V41.2922V41.2876Z" fill="white"></path>
</svg>